<svg width="1685" height="1294" viewBox="0 0 1685 1294" fill="none" xmlns="http://www.w3.org/2000/svg">
<g clip-path="url(#clip0_236_84)">
<path d="M236.803 669.221C101.842 669.221 0.388672 563.114 0.388672 433.737C0.388672 300.637 100.911 197.322 234.011 197.322C310.334 197.322 377.349 236.415 415.51 294.122L416.441 0H474.149V433.737C474.149 565.906 369.903 669.221 236.803 669.221ZM236.803 614.306C337.326 614.306 416.441 532.398 416.441 433.737C416.441 335.076 337.326 252.238 236.803 252.238C137.211 252.238 58.0962 335.076 58.0962 433.737C58.0962 532.398 137.211 614.306 236.803 614.306Z" fill="#23F0C7"/>
<path d="M827.643 668.29C693.613 668.29 590.298 562.183 590.298 431.876C590.298 302.499 695.474 197.323 827.643 197.323C962.604 197.323 1064.06 303.43 1064.06 431.876C1064.06 562.183 960.743 668.29 827.643 668.29ZM827.643 613.375C927.235 613.375 1006.35 531.468 1006.35 432.806C1006.35 334.145 927.235 252.238 827.643 252.238C727.121 252.238 648.005 334.145 648.005 432.806C648.005 531.468 727.121 613.375 827.643 613.375Z" fill="#EF767A"/>
<path d="M1362.49 669.221C1266.62 669.221 1210.78 606.86 1210.78 510.991V259.684H1114.91V207.561H1210.78V87.4919H1268.48V207.561H1452.78V259.684H1268.48V509.129C1268.48 576.144 1307.58 615.236 1367.15 615.236C1399.72 615.236 1430.44 603.137 1452.78 584.521V640.367C1429.51 658.052 1396 669.221 1362.49 669.221Z" fill="#FFE347"/>
<path d="M1638.36 666.429C1615.09 666.429 1596.47 647.813 1596.47 623.613C1596.47 600.344 1615.09 582.66 1638.36 582.66C1661.63 582.66 1680.24 600.344 1680.24 623.613C1680.24 647.813 1661.63 666.429 1638.36 666.429Z" fill="#141121"/>
<path d="M532.81 1294.41H243.511C104.064 1293.02 0 1188.26 0 1050.2C0 910.758 105.452 806 246.979 806C388.507 806 493.959 910.758 493.959 1050.2C493.959 1102.24 479.39 1149.41 453.721 1187.57C478.696 1184.79 501.59 1183.41 518.934 1183.41H532.81V1294.41ZM246.979 1173C312.193 1173 362.144 1119.58 362.144 1050.2C362.144 980.828 312.193 927.408 246.979 927.408C181.766 927.408 131.815 980.828 131.815 1050.2C131.815 1119.58 181.766 1173 246.979 1173Z" fill="url(#paint0_linear_236_84)"/>
<path d="M794.174 1292.33C647.096 1292.33 581.189 1211.16 581.189 1072.4V815.713H709.535V1068.94C709.535 1141.09 737.285 1170.92 794.174 1170.92C851.756 1170.92 879.507 1141.09 879.507 1068.94V815.713H1007.85V1072.4C1007.85 1211.16 940.558 1292.33 794.174 1292.33Z" fill="url(#paint1_linear_236_84)"/>
<path d="M1108.53 815.713H1236.88V1284H1108.53V815.713Z" fill="url(#paint2_linear_236_84)"/>
<path d="M1670.29 1166.06V1284H1425.39C1351.85 1284 1319.94 1236.13 1319.94 1186.18C1319.94 1157.04 1331.04 1126.52 1352.54 1105.01L1521.82 933.652H1331.73V815.713H1571.08C1641.84 815.713 1680 860.807 1680 911.452C1680 939.202 1668.21 969.728 1643.23 994.703L1474.65 1166.06H1670.29Z" fill="url(#paint3_linear_236_84)"/>
</g>
<defs>
<linearGradient id="paint0_linear_236_84" x1="840" y1="806" x2="840" y2="1294.41" gradientUnits="userSpaceOnUse">
<stop stop-color="#141121"/>
<stop offset="1" stop-color="#191629"/>
</linearGradient>
<linearGradient id="paint1_linear_236_84" x1="840" y1="806" x2="840" y2="1294.41" gradientUnits="userSpaceOnUse">
<stop stop-color="#141121"/>
<stop offset="1" stop-color="#191629"/>
</linearGradient>
<linearGradient id="paint2_linear_236_84" x1="840" y1="806" x2="840" y2="1294.41" gradientUnits="userSpaceOnUse">
<stop stop-color="#141121"/>
<stop offset="1" stop-color="#191629"/>
</linearGradient>
<linearGradient id="paint3_linear_236_84" x1="840" y1="806" x2="840" y2="1294.41" gradientUnits="userSpaceOnUse">
<stop stop-color="#141121"/>
<stop offset="1" stop-color="#191629"/>
</linearGradient>
<clipPath id="clip0_236_84">
<rect width="1685" height="1294" fill="white"/>
</clipPath>
</defs>
</svg>
